@startuml
left to right direction
package "Rental Car Booking"{
    class "<<Application>>\nRental Car Booking" as rentalCarBooking{}

    class "<<Resource>>\nUsers" as ResourceUsers{
        <<GET>> +register():User
        <<POST>> +login():User
        <<GET>> +logout():void
    }

    ' class "<<Resource>>\nUser" as ResourceUser {
    '     <<DELETE>> -deleteUser(): void
    ' }

    class "<<Representation>>\nUser" as RepresentationUser {
        -name
        -telephone
        -email
        -password
        -balance
        -role
        -createAt
    }


    

    class "<<Resource>>\nRentings" as ResourceRentings{
        <<GET>> -getRentings()
        <<POST>> -addRenting()
    }

    class "<<Resource>>\nRenting" as ResourceRenting {
        <<GET>> +getRenting()
        <<PUT>> -updateRenting()
        <<DELETE>> -deleteRenting()
    }

    class "<<Representation>>\nRenting" as RepresentationRenting {
        -rentDate
        -rentTo
        -user
        -carProvider
        -createAt
        -returned
    }


    

    class "<<Resource>>\nCarProviders" as ResourceCarProviders{
        <<GET>> +getCarProviders()
        <<POST>> -createCarProvider()
    }

    class "<<Resource>>\nCarProvider" as ResourceCarProvider {
        <<GET>> +getCarProvider()
        <<PUT>> -updateCarProvider()
        <<DELETE>> -deleteCarProvider()
    }

    class "<<Representation>>\nCarProvider" as RepresentationCarProvider {
        -name
        -address
        -telephone
        -price
    }



}

rentalCarBooking ..> ResourceUsers:"/auth\n<<Path>>"
' ResourceUsers ..> ResourceUser: "/{:id}\n<<Path>>"
ResourceUsers ..> RepresentationUser: "<<use>>"

rentalCarBooking ..> ResourceRentings:"/rentings\n<<Path>>"
ResourceRentings ..> ResourceRenting: "/{:id}\n<<Path>>"
ResourceRenting ..> RepresentationRenting: "<<use>>"

rentalCarBooking ..> ResourceCarProviders:"/carproviders\n<<Path>>"
ResourceCarProviders ..> ResourceCarProvider: "/{:id}\n<<Path>>"
ResourceCarProvider ..> RepresentationCarProvider: "<<use>>"

@enduml